<svg xmlns="http://www.w3.org/2000/svg" xmlns:xlink="http://www.w3.org/1999/xlink" width="500" zoomAndPan="magnify" viewBox="0 0 375 374.999991" height="500" preserveAspectRatio="xMidYMid meet" version="1.0"><defs><g/><clipPath id="bb1eb896f2"><path d="M 130.828125 46.496094 L 244.078125 46.496094 L 244.078125 159.746094 L 130.828125 159.746094 Z M 130.828125 46.496094 " clip-rule="nonzero"/></clipPath></defs><g clip-path="url(#bb1eb896f2)"><path fill="#9fc7aa" d="M 191.109375 106.777344 L 244.234375 103.203125 L 191.109375 99.625 L 187.53125 46.496094 L 183.953125 99.625 L 130.828125 103.203125 L 183.953125 106.777344 L 187.53125 159.902344 Z M 191.109375 106.777344 " fill-opacity="1" fill-rule="nonzero"/></g><path fill="#9fc7aa" d="M 187.53125 106.023438 L 209.90625 125.574219 L 190.355469 103.203125 L 209.90625 80.828125 L 187.53125 100.375 L 165.15625 80.828125 L 184.707031 103.203125 L 165.15625 125.574219 Z M 187.53125 106.023438 " fill-opacity="1" fill-rule="nonzero"/><path stroke-linecap="butt" transform="matrix(0.75, 0, 0, 0.75, 33.565923, 179.086908)" fill="none" stroke-linejoin="miter" d="M 88.479817 9.087248 C 97.781901 9.087248 99.719401 0.457039 98.787109 -6.407545 L 97.417318 -6.407545 C 97.417318 -3.662753 96.729818 -1.907544 93.667317 -1.907544 C 90.542317 -1.907544 86.485025 -6.725253 80.229817 -6.725253 C 68.552732 -6.725253 59.068357 2.894539 59.068357 14.821623 C 59.068357 26.759124 68.552732 36.441416 80.229817 36.441416 C 88.542317 36.441416 96.594401 31.561208 100.042318 24.503916 L 98.787109 23.816416 C 96.469401 28.253916 92.172526 32.311208 86.604817 30.936208 C 82.610025 30.009124 77.870441 25.509124 73.735024 18.889332 C 67.927732 9.514331 66.125649 0.149747 69.740233 -2.105461 C 76.052733 -6.100253 79.240233 9.087248 88.479817 9.087248 Z M 136.44857 35.998708 L 136.44857 2.207039 L 122.766278 2.207039 L 122.766278 28.941416 C 122.646486 31.061208 122.083986 32.566416 120.391278 33.134125 C 116.714194 34.248708 113.464194 32.509124 115.401694 19.639332 C 116.208986 14.134123 116.839194 8.764331 113.833985 4.951831 C 108.589193 -1.662753 97.714193 3.154956 93.537109 8.64454 L 94.464193 9.634123 C 96.464193 7.712248 98.537109 7.212248 100.151693 8.64454 C 102.594401 10.764331 102.271485 14.26954 101.464193 19.259124 C 99.91211 28.998708 105.458985 36.2435 116.271486 36.2435 C 122.448569 36.2435 125.57357 29.884124 132.01107 31.196624 C 133.703778 31.561208 134.875653 32.873708 134.875653 35.998708 Z M 139.313154 2.207039 L 139.313154 35.998708 L 152.990238 35.998708 L 152.865238 8.51954 C 152.865238 6.264331 153.432946 4.649748 155.04753 4.894539 C 158.92253 5.457039 156.802738 15.826832 164.927739 15.826832 C 170.235031 15.826832 173.162114 12.576832 172.537114 2.207039 L 170.922531 2.207039 C 170.922531 4.524748 170.235031 6.264331 168.177739 6.264331 C 165.11003 6.264331 165.354822 1.764331 158.052738 1.764331 C 152.865238 1.764331 151.17253 6.082039 147.057946 6.826831 C 143.625654 7.451831 140.880862 7.009123 140.880862 2.207039 Z M 175.156906 2.207039 L 175.156906 35.998708 L 188.839199 35.998708 L 188.714199 8.51954 C 188.714199 6.264331 189.281907 4.649748 190.896491 4.894539 C 194.771491 5.457039 192.651699 15.826832 200.776699 15.826832 C 206.083991 15.826832 209.011075 12.576832 208.386075 2.207039 L 206.771492 2.207039 C 206.771492 4.524748 206.083991 6.264331 204.0267 6.264331 C 200.958991 6.264331 201.203783 1.764331 193.901699 1.764331 C 188.714199 1.764331 187.02149 6.082039 182.906907 6.826831 C 179.474615 7.451831 176.729823 7.009123 176.729823 2.207039 Z M 223.818368 20.764332 C 246.292327 15.259123 245.802744 1.764331 229.307951 1.764331 C 218.125659 1.764331 210.641283 8.889331 210.641283 19.071624 C 210.641283 29.321624 218.125659 36.441416 229.307951 36.441416 C 238.807952 36.441416 242.740244 33.253916 248.047536 27.186207 C 247.682953 26.821624 247.297536 26.378916 246.854828 26.014332 C 239.672535 33.941416 231.865243 33.498708 224.625659 22.076832 C 224.318368 21.634124 224.057951 21.191415 223.818368 20.764332 Z M 229.120451 8.889331 C 232.370452 14.134123 228.255868 18.389332 223.005868 19.45704 C 218.875659 12.39454 217.198576 7.087248 220.386076 5.014331 C 222.750659 3.519539 226.50066 4.649748 229.120451 8.889331 Z M 243.917327 2.207039 L 243.917327 35.998708 L 257.59962 35.998708 L 257.59962 9.83204 C 257.656912 7.332039 258.16212 5.457039 259.97462 4.894539 C 263.667329 3.701831 266.917329 5.519539 264.979829 18.326832 C 264.156912 23.816416 263.531912 29.196624 266.531912 32.9935 C 271.839204 39.628917 282.651705 34.811208 286.828788 29.321624 L 285.901705 28.316416 C 283.901705 30.311208 281.828788 30.753916 280.214205 29.321624 C 277.771496 27.186207 278.151705 23.696624 278.901705 18.691415 C 280.453788 8.946623 274.906913 1.764331 264.094412 1.764331 C 259.292328 1.764331 255.922536 5.899748 252.229828 6.769539 C 248.599619 7.639331 245.490244 7.269539 245.490244 2.207039 Z M 316.427749 25.186207 C 310.630873 33.316416 303.313165 34.566416 295.443372 22.076832 C 290.13608 13.70704 287.333997 6.826831 291.203789 5.014331 C 297.198581 2.207039 295.443372 17.701832 305.938165 17.701832 C 314.063165 17.701832 316.302749 9.087248 315.375665 2.207039 L 314.000665 2.207039 C 314.000665 5.014331 313.375665 6.707039 311.057957 6.707039 C 307.932957 6.707039 305.068373 1.764331 299.255873 1.764331 C 289.453789 1.764331 281.458996 8.889331 281.458996 19.071624 C 281.458996 29.321624 288.94858 36.441416 300.063164 36.441416 C 309.563165 36.441416 313.682957 32.311208 317.740249 26.134124 Z M 335.485042 34.123708 C 332.537125 34.306 330.11525 32.509124 332.05275 19.639332 C 332.860041 14.134123 333.485042 8.764331 330.479833 4.951831 C 325.172541 -1.662753 314.36004 3.154956 310.125665 8.64454 L 311.115248 9.634123 C 313.052749 7.712248 315.125665 7.212248 316.802749 8.64454 C 319.240249 10.764331 318.860041 14.26954 318.115249 19.259124 C 316.557957 28.998708 321.985041 36.2435 332.922541 36.2435 C 336.610042 36.2435 339.797542 34.686208 342.422542 32.186208 C 342.037125 39.550792 339.662125 44.613292 335.099625 44.613292 C 330.74025 44.613292 330.360041 37.128916 322.370457 37.128916 C 314.240249 37.128916 312.000665 45.7435 312.927749 52.545584 L 314.302749 52.545584 C 314.302749 49.800792 314.802749 48.123709 317.61004 48.123709 C 320.735041 48.123709 321.985041 53.050792 328.17775 53.050792 C 337.479833 53.050792 344.599626 38.941417 348.292334 26.196624 C 350.031918 20.139332 353.156918 7.639331 349.906918 2.207039 L 331.792333 2.207039 C 341.474625 7.394539 346.094417 33.498708 335.485042 34.123708 Z M 335.485042 34.123708 " stroke="#3c6446" stroke-width="4.684718" stroke-opacity="1" stroke-miterlimit="4"/><path stroke-linecap="butt" transform="matrix(0.75, 0, 0, 0.75, 33.565923, 179.086908)" fill="none" stroke-linejoin="miter" d="M 69.401691 51.087251 C 78.703775 51.087251 80.641275 42.457042 79.708983 35.592458 L 78.339191 35.592458 C 78.339191 38.33725 77.651691 40.092458 74.589191 40.092458 C 71.464191 40.092458 67.406899 35.27475 61.15169 35.27475 C 49.474606 35.27475 39.990231 44.894542 39.990231 56.821626 C 39.990231 68.759127 49.474606 78.441419 61.15169 78.441419 C 69.464191 78.441419 77.516275 73.561211 80.964192 66.503918 L 79.708983 65.816418 C 77.391275 70.253919 73.094399 74.311211 67.526691 72.93621 C 63.531899 72.009127 58.792315 67.509127 54.656898 60.889335 C 48.849606 51.514334 47.047523 42.14975 50.662106 39.894542 C 56.974607 35.89975 60.162107 51.087251 69.401691 51.087251 Z M 100.807943 43.764334 C 89.630859 43.764334 82.141275 50.889334 82.141275 61.071626 C 82.141275 71.321627 89.630859 78.441419 100.807943 78.441419 C 111.938152 78.441419 119.427736 71.321627 119.427736 61.071626 C 119.427736 50.889334 111.938152 43.764334 100.807943 43.764334 Z M 109.682944 75.134127 C 106.13086 77.373711 101.432943 72.37371 96.125651 64.076835 C 90.818359 55.707043 88.318359 49.332042 91.886067 47.014334 C 95.438151 44.77475 100.120443 49.774751 105.44336 58.128918 C 110.688152 66.441418 113.313152 72.878919 109.682944 75.134127 Z M 121.979819 44.207042 L 121.979819 77.998711 L 135.662112 77.998711 L 135.662112 51.832042 C 135.719404 49.332042 136.224612 47.457042 138.037112 46.894542 C 141.729821 45.701834 144.974612 47.519542 143.042321 60.326835 C 142.214196 65.816418 141.589196 71.196627 144.594404 74.993502 C 149.901696 81.628919 160.714197 76.811211 164.89128 71.321627 L 163.964197 70.316419 C 161.964197 72.31121 159.89128 72.753919 158.271488 71.321627 C 155.833988 69.18621 156.214197 65.696627 156.964197 60.691418 C 158.51628 50.946626 152.969405 43.764334 142.156904 43.764334 C 137.35482 43.764334 133.97982 47.89975 130.29232 48.769542 C 126.662111 49.639334 123.552736 49.269542 123.552736 44.207042 Z M 179.375656 76.123711 C 176.511073 76.306002 174.068364 74.509127 176.005865 61.639335 C 176.813156 56.134126 177.380865 50.764334 174.453781 46.951834 C 169.146489 40.33725 158.271488 45.154959 154.07878 50.644542 L 155.083988 51.634126 C 157.021488 49.712251 159.07878 49.212251 160.771489 50.644542 C 163.198572 52.764334 162.89128 56.269543 162.083989 61.259126 C 160.51628 70.99871 165.958989 78.243502 176.875656 78.243502 C 192.370449 78.243502 198.500658 50.764334 193.880866 44.207042 L 175.761073 44.207042 C 185.448573 49.394542 190.068365 75.498711 179.375656 76.123711 Z M 210.735033 62.764335 C 233.208993 57.259126 232.724618 43.764334 216.224617 43.764334 C 205.047533 43.764334 197.557949 50.889334 197.557949 61.071626 C 197.557949 71.321627 205.047533 78.441419 216.224617 78.441419 C 225.724618 78.441419 229.65691 75.253919 234.964202 69.18621 C 234.599618 68.821627 234.21941 68.378919 233.776702 68.014335 C 226.59441 75.941419 218.787117 75.498711 211.542325 64.076835 C 211.235034 63.634127 210.979825 63.191418 210.735033 62.764335 Z M 216.042325 50.889334 C 219.287117 56.134126 215.172534 60.389335 209.927742 61.457043 C 205.792325 54.394543 204.115241 49.087251 207.302742 47.014334 C 209.667325 45.519542 213.417325 46.64975 216.042325 50.889334 Z M 230.839201 44.207042 L 230.839201 77.998711 L 244.516286 77.998711 L 244.391286 50.519542 C 244.391286 48.264334 244.958994 46.64975 246.573577 46.894542 C 250.448578 47.457042 248.328786 57.826834 256.453786 57.826834 C 261.761078 57.826834 264.688162 54.576834 264.063162 44.207042 L 262.448579 44.207042 C 262.448579 46.52475 261.761078 48.264334 259.703787 48.264334 C 256.636078 48.264334 256.88087 43.764334 249.578786 43.764334 C 244.391286 43.764334 242.698577 48.082042 238.583994 48.826834 C 235.151702 49.451834 232.40691 49.009126 232.40691 44.207042 Z M 284.360038 55.201834 L 284.360038 45.639334 L 293.677747 45.639334 L 293.677747 44.207042 L 284.360038 44.207042 L 284.360038 35.592458 L 282.865247 35.592458 C 282.865247 39.71225 279.495455 44.207042 270.740246 44.207042 L 266.38087 44.207042 L 266.38087 45.639334 L 270.740246 45.639334 L 270.740246 64.826835 C 270.740246 75.561211 276.307954 78.441419 281.615246 78.441419 C 287.120455 78.441419 287.422539 73.441419 290.490247 73.441419 C 293.292331 73.441419 293.354831 75.196627 293.354831 77.941419 L 294.787122 77.941419 C 295.672539 71.06121 295.172539 62.446626 287.057955 62.446626 C 281.432955 62.446626 279.860038 70.009127 275.557954 70.009127 C 273.000663 70.009127 272.313163 68.253918 272.557954 66.56121 C 273.182954 62.566418 284.360038 63.253918 284.360038 55.201834 Z M 316.021499 43.764334 C 304.844415 43.764334 297.354831 50.889334 297.354831 61.071626 C 297.354831 71.321627 304.844415 78.441419 316.021499 78.441419 C 327.151708 78.441419 334.641292 71.321627 334.641292 61.071626 C 334.641292 50.889334 327.151708 43.764334 316.021499 43.764334 Z M 324.896499 75.134127 C 321.344416 77.373711 316.646499 72.37371 311.339207 64.076835 C 306.031915 55.707043 303.531915 49.332042 307.099623 47.014334 C 310.651707 44.77475 315.333999 49.774751 320.656916 58.128918 C 325.901708 66.441418 328.526708 72.878919 324.896499 75.134127 Z M 337.193375 44.207042 L 337.193375 77.998711 L 350.870459 77.998711 L 350.750668 50.519542 C 350.750668 48.264334 351.313168 46.64975 352.932959 46.894542 C 356.802751 47.457042 354.68296 57.826834 362.813168 57.826834 C 368.12046 57.826834 371.047544 54.576834 370.422544 44.207042 L 368.807961 44.207042 C 368.807961 46.52475 368.12046 48.264334 366.063169 48.264334 C 362.99546 48.264334 363.240252 43.764334 355.938168 43.764334 C 350.750668 43.764334 349.057959 48.082042 344.943376 48.826834 C 341.511084 49.451834 338.766292 49.009126 338.766292 44.207042 Z M 337.193375 44.207042 " stroke="#3c6446" stroke-width="4.684718" stroke-opacity="1" stroke-miterlimit="4"/><g fill="#9fc7aa" fill-opacity="1"><g transform="translate(77.019045, 206.086906)"><g><path d="M 22.90625 -20.191406 C 29.886719 -20.191406 31.339844 -26.65625 30.636719 -31.808594 L 29.605469 -31.808594 C 29.605469 -29.746094 29.089844 -28.433594 26.796875 -28.433594 C 24.453125 -28.433594 21.40625 -32.042969 16.722656 -32.042969 C 7.964844 -32.042969 0.84375 -24.828125 0.84375 -15.878906 C 0.84375 -6.933594 7.964844 0.328125 16.722656 0.328125 C 22.953125 0.328125 28.996094 -3.324219 31.574219 -8.621094 L 30.636719 -9.136719 C 28.902344 -5.808594 25.671875 -2.765625 21.5 -3.792969 C 18.503906 -4.496094 14.945312 -7.871094 11.851562 -12.835938 C 7.496094 -19.863281 6.136719 -26.890625 8.855469 -28.574219 C 13.585938 -31.574219 15.972656 -20.191406 22.90625 -20.191406 Z M 22.90625 -20.191406 "/></g></g></g><g fill="#9fc7aa" fill-opacity="1"><g transform="translate(108.635887, 206.086906)"><g><path d="M 27.265625 0 L 27.265625 -25.34375 L 17.003906 -25.34375 L 17.003906 -5.292969 C 16.910156 -3.699219 16.488281 -2.578125 15.226562 -2.15625 C 12.460938 -1.3125 10.023438 -2.625 11.476562 -12.273438 C 12.085938 -16.394531 12.554688 -20.425781 10.304688 -23.28125 C 6.371094 -28.246094 -1.78125 -24.640625 -4.917969 -20.519531 L -4.214844 -19.769531 C -2.71875 -21.222656 -1.171875 -21.59375 0.046875 -20.519531 C 1.875 -18.925781 1.640625 -16.300781 1.03125 -12.554688 C -0.140625 -5.246094 4.027344 0.1875 12.132812 0.1875 C 16.769531 0.1875 19.113281 -4.589844 23.9375 -3.605469 C 25.203125 -3.324219 26.09375 -2.34375 26.09375 0 Z M 27.265625 0 "/></g></g></g><g fill="#9fc7aa" fill-opacity="1"><g transform="translate(136.973951, 206.086906)"><g><path d="M 1.078125 -25.34375 L 1.078125 0 L 11.335938 0 L 11.242188 -20.613281 C 11.242188 -22.296875 11.664062 -23.515625 12.882812 -23.328125 C 15.785156 -22.90625 14.195312 -15.132812 20.285156 -15.132812 C 24.265625 -15.132812 26.46875 -17.566406 26 -25.34375 L 24.78125 -25.34375 C 24.78125 -23.609375 24.265625 -22.296875 22.71875 -22.296875 C 20.425781 -22.296875 20.613281 -25.671875 15.132812 -25.671875 C 11.242188 -25.671875 9.976562 -22.4375 6.886719 -21.875 C 4.308594 -21.40625 2.25 -21.734375 2.25 -25.34375 Z M 1.078125 -25.34375 "/></g></g></g><g fill="#9fc7aa" fill-opacity="1"><g transform="translate(163.859978, 206.086906)"><g><path d="M 1.078125 -25.34375 L 1.078125 0 L 11.335938 0 L 11.242188 -20.613281 C 11.242188 -22.296875 11.664062 -23.515625 12.882812 -23.328125 C 15.785156 -22.90625 14.195312 -15.132812 20.285156 -15.132812 C 24.265625 -15.132812 26.46875 -17.566406 26 -25.34375 L 24.78125 -25.34375 C 24.78125 -23.609375 24.265625 -22.296875 22.71875 -22.296875 C 20.425781 -22.296875 20.613281 -25.671875 15.132812 -25.671875 C 11.242188 -25.671875 9.976562 -22.4375 6.886719 -21.875 C 4.308594 -21.40625 2.25 -21.734375 2.25 -25.34375 Z M 1.078125 -25.34375 "/></g></g></g><g fill="#9fc7aa" fill-opacity="1"><g transform="translate(190.746004, 206.086906)"><g><path d="M 10.679688 -11.429688 C 27.542969 -15.550781 27.171875 -25.671875 14.804688 -25.671875 C 6.417969 -25.671875 0.796875 -20.332031 0.796875 -12.695312 C 0.796875 -5.011719 6.417969 0.328125 14.804688 0.328125 C 21.921875 0.328125 24.875 -2.0625 28.855469 -6.605469 C 28.574219 -6.886719 28.292969 -7.214844 27.964844 -7.496094 C 22.578125 -1.546875 16.722656 -1.875 11.289062 -10.445312 C 11.054688 -10.773438 10.867188 -11.101562 10.679688 -11.429688 Z M 14.664062 -20.332031 C 17.097656 -16.394531 14.007812 -13.210938 10.070312 -12.414062 C 6.980469 -17.707031 5.714844 -21.6875 8.105469 -23.234375 C 9.882812 -24.359375 12.695312 -23.515625 14.664062 -20.332031 Z M 14.664062 -20.332031 "/></g></g></g><g fill="#9fc7aa" fill-opacity="1"><g transform="translate(215.430565, 206.086906)"><g><path d="M 1.078125 -25.34375 L 1.078125 0 L 11.335938 0 L 11.335938 -19.628906 C 11.382812 -21.5 11.757812 -22.90625 13.117188 -23.328125 C 15.878906 -24.21875 18.316406 -22.859375 16.863281 -13.257812 C 16.253906 -9.136719 15.785156 -5.105469 18.035156 -2.25 C 22.015625 2.71875 30.121094 -0.890625 33.261719 -5.011719 L 32.558594 -5.761719 C 31.058594 -4.261719 29.511719 -3.933594 28.292969 -5.011719 C 26.46875 -6.605469 26.75 -9.226562 27.3125 -12.976562 C 28.480469 -20.285156 24.3125 -25.671875 16.207031 -25.671875 C 12.601562 -25.671875 10.070312 -22.578125 7.308594 -21.921875 C 4.589844 -21.269531 2.25 -21.546875 2.25 -25.34375 Z M 1.078125 -25.34375 "/></g></g></g><g fill="#9fc7aa" fill-opacity="1"><g transform="translate(243.81547, 206.086906)"><g><path d="M 27.078125 -8.105469 C 22.71875 -2.015625 17.238281 -1.078125 11.335938 -10.445312 C 7.355469 -16.722656 5.246094 -21.875 8.152344 -23.234375 C 12.648438 -25.34375 11.335938 -13.726562 19.207031 -13.726562 C 25.296875 -13.726562 26.984375 -20.191406 26.28125 -25.34375 L 25.25 -25.34375 C 25.25 -23.234375 24.78125 -21.96875 23.046875 -21.96875 C 20.707031 -21.96875 18.550781 -25.671875 14.195312 -25.671875 C 6.839844 -25.671875 0.84375 -20.332031 0.84375 -12.695312 C 0.84375 -5.011719 6.464844 0.328125 14.804688 0.328125 C 21.921875 0.328125 25.015625 -2.765625 28.058594 -7.402344 Z M 27.078125 -8.105469 "/></g></g></g><g fill="#9fc7aa" fill-opacity="1"><g transform="translate(271.076222, 206.086906)"><g><path d="M 14.101562 -1.40625 C 11.898438 -1.265625 10.070312 -2.625 11.523438 -12.273438 C 12.132812 -16.394531 12.601562 -20.425781 10.351562 -23.28125 C 6.371094 -28.246094 -1.734375 -24.640625 -4.917969 -20.519531 L -4.167969 -19.769531 C -2.71875 -21.222656 -1.171875 -21.59375 0.09375 -20.519531 C 1.921875 -18.925781 1.640625 -16.300781 1.078125 -12.554688 C -0.09375 -5.246094 3.980469 0.1875 12.179688 0.1875 C 14.945312 0.1875 17.332031 -0.984375 19.300781 -2.859375 C 19.019531 2.671875 17.238281 6.464844 13.820312 6.464844 C 10.539062 6.464844 10.257812 0.84375 4.261719 0.84375 C -1.828125 0.84375 -3.511719 7.308594 -2.8125 12.414062 L -1.78125 12.414062 C -1.78125 10.351562 -1.40625 9.089844 0.703125 9.089844 C 3.046875 9.089844 3.980469 12.789062 8.621094 12.789062 C 15.597656 12.789062 20.941406 2.203125 23.703125 -7.355469 C 25.015625 -11.898438 27.359375 -21.269531 24.921875 -25.34375 L 11.335938 -25.34375 C 18.597656 -21.453125 22.0625 -1.875 14.101562 -1.40625 Z M 14.101562 -1.40625 "/></g></g></g><g fill="#9fc7aa" fill-opacity="1"><g transform="translate(62.710452, 237.586904)"><g><path d="M 22.90625 -20.191406 C 29.886719 -20.191406 31.339844 -26.65625 30.636719 -31.808594 L 29.605469 -31.808594 C 29.605469 -29.746094 29.089844 -28.433594 26.796875 -28.433594 C 24.453125 -28.433594 21.40625 -32.042969 16.722656 -32.042969 C 7.964844 -32.042969 0.84375 -24.828125 0.84375 -15.878906 C 0.84375 -6.933594 7.964844 0.328125 16.722656 0.328125 C 22.953125 0.328125 28.996094 -3.324219 31.574219 -8.621094 L 30.636719 -9.136719 C 28.902344 -5.808594 25.671875 -2.765625 21.5 -3.792969 C 18.503906 -4.496094 14.945312 -7.871094 11.851562 -12.835938 C 7.496094 -19.863281 6.136719 -26.890625 8.855469 -28.574219 C 13.585938 -31.574219 15.972656 -20.191406 22.90625 -20.191406 Z M 22.90625 -20.191406 "/></g></g></g><g fill="#9fc7aa" fill-opacity="1"><g transform="translate(94.327294, 237.586904)"><g><path d="M 14.851562 -25.671875 C 6.464844 -25.671875 0.84375 -20.332031 0.84375 -12.695312 C 0.84375 -5.011719 6.464844 0.328125 14.851562 0.328125 C 23.1875 0.328125 28.808594 -5.011719 28.808594 -12.695312 C 28.808594 -20.332031 23.1875 -25.671875 14.851562 -25.671875 Z M 21.5 -2.15625 C 18.832031 -0.46875 15.316406 -4.214844 11.335938 -10.445312 C 7.355469 -16.722656 5.480469 -21.5 8.152344 -23.234375 C 10.820312 -24.921875 14.335938 -21.175781 18.316406 -14.898438 C 22.25 -8.667969 24.21875 -3.839844 21.5 -2.15625 Z M 21.5 -2.15625 "/></g></g></g><g fill="#9fc7aa" fill-opacity="1"><g transform="translate(123.976874, 237.586904)"><g><path d="M 1.078125 -25.34375 L 1.078125 0 L 11.335938 0 L 11.335938 -19.628906 C 11.382812 -21.5 11.757812 -22.90625 13.117188 -23.328125 C 15.878906 -24.21875 18.316406 -22.859375 16.863281 -13.257812 C 16.253906 -9.136719 15.785156 -5.105469 18.035156 -2.25 C 22.015625 2.71875 30.121094 -0.890625 33.261719 -5.011719 L 32.558594 -5.761719 C 31.058594 -4.261719 29.511719 -3.933594 28.292969 -5.011719 C 26.46875 -6.605469 26.75 -9.226562 27.3125 -12.976562 C 28.480469 -20.285156 24.3125 -25.671875 16.207031 -25.671875 C 12.601562 -25.671875 10.070312 -22.578125 7.308594 -21.921875 C 4.589844 -21.269531 2.25 -21.546875 2.25 -25.34375 Z M 1.078125 -25.34375 "/></g></g></g><g fill="#9fc7aa" fill-opacity="1"><g transform="translate(152.361779, 237.586904)"><g><path d="M 15.738281 -1.40625 C 13.585938 -1.265625 11.757812 -2.625 13.210938 -12.273438 C 13.820312 -16.394531 14.242188 -20.425781 12.039062 -23.28125 C 8.058594 -28.246094 -0.09375 -24.640625 -3.230469 -20.519531 L -2.484375 -19.769531 C -1.03125 -21.222656 0.515625 -21.59375 1.78125 -20.519531 C 3.605469 -18.925781 3.371094 -16.300781 2.765625 -12.554688 C 1.59375 -5.246094 5.667969 0.1875 13.867188 0.1875 C 25.484375 0.1875 30.074219 -20.425781 26.609375 -25.34375 L 13.023438 -25.34375 C 20.285156 -21.453125 23.75 -1.875 15.738281 -1.40625 Z M 15.738281 -1.40625 "/></g></g></g><g fill="#9fc7aa" fill-opacity="1"><g transform="translate(180.934035, 237.586904)"><g><path d="M 10.679688 -11.429688 C 27.542969 -15.550781 27.171875 -25.671875 14.804688 -25.671875 C 6.417969 -25.671875 0.796875 -20.332031 0.796875 -12.695312 C 0.796875 -5.011719 6.417969 0.328125 14.804688 0.328125 C 21.921875 0.328125 24.875 -2.0625 28.855469 -6.605469 C 28.574219 -6.886719 28.292969 -7.214844 27.964844 -7.496094 C 22.578125 -1.546875 16.722656 -1.875 11.289062 -10.445312 C 11.054688 -10.773438 10.867188 -11.101562 10.679688 -11.429688 Z M 14.664062 -20.332031 C 17.097656 -16.394531 14.007812 -13.210938 10.070312 -12.414062 C 6.980469 -17.707031 5.714844 -21.6875 8.105469 -23.234375 C 9.882812 -24.359375 12.695312 -23.515625 14.664062 -20.332031 Z M 14.664062 -20.332031 "/></g></g></g><g fill="#9fc7aa" fill-opacity="1"><g transform="translate(205.618596, 237.586904)"><g><path d="M 1.078125 -25.34375 L 1.078125 0 L 11.335938 0 L 11.242188 -20.613281 C 11.242188 -22.296875 11.664062 -23.515625 12.882812 -23.328125 C 15.785156 -22.90625 14.195312 -15.132812 20.285156 -15.132812 C 24.265625 -15.132812 26.46875 -17.566406 26 -25.34375 L 24.78125 -25.34375 C 24.78125 -23.609375 24.265625 -22.296875 22.71875 -22.296875 C 20.425781 -22.296875 20.613281 -25.671875 15.132812 -25.671875 C 11.242188 -25.671875 9.976562 -22.4375 6.886719 -21.875 C 4.308594 -21.40625 2.25 -21.734375 2.25 -25.34375 Z M 1.078125 -25.34375 "/></g></g></g><g fill="#9fc7aa" fill-opacity="1"><g transform="translate(232.504622, 237.586904)"><g><path d="M 14.335938 -17.097656 L 14.335938 -24.265625 L 21.316406 -24.265625 L 21.316406 -25.34375 L 14.335938 -25.34375 L 14.335938 -31.808594 L 13.210938 -31.808594 C 13.210938 -28.714844 10.679688 -25.34375 4.121094 -25.34375 L 0.84375 -25.34375 L 0.84375 -24.265625 L 4.121094 -24.265625 L 4.121094 -9.882812 C 4.121094 -1.828125 8.292969 0.328125 12.273438 0.328125 C 16.394531 0.328125 16.628906 -3.417969 18.925781 -3.417969 C 21.035156 -3.417969 21.082031 -2.109375 21.082031 -0.046875 L 22.15625 -0.046875 C 22.8125 -5.199219 22.4375 -11.664062 16.347656 -11.664062 C 12.132812 -11.664062 10.960938 -5.996094 7.730469 -5.996094 C 5.808594 -5.996094 5.292969 -7.308594 5.480469 -8.574219 C 5.949219 -11.570312 14.335938 -11.054688 14.335938 -17.097656 Z M 14.335938 -17.097656 "/></g></g></g><g fill="#9fc7aa" fill-opacity="1"><g transform="translate(255.737157, 237.586904)"><g><path d="M 14.851562 -25.671875 C 6.464844 -25.671875 0.84375 -20.332031 0.84375 -12.695312 C 0.84375 -5.011719 6.464844 0.328125 14.851562 0.328125 C 23.1875 0.328125 28.808594 -5.011719 28.808594 -12.695312 C 28.808594 -20.332031 23.1875 -25.671875 14.851562 -25.671875 Z M 21.5 -2.15625 C 18.832031 -0.46875 15.316406 -4.214844 11.335938 -10.445312 C 7.355469 -16.722656 5.480469 -21.5 8.152344 -23.234375 C 10.820312 -24.921875 14.335938 -21.175781 18.316406 -14.898438 C 22.25 -8.667969 24.21875 -3.839844 21.5 -2.15625 Z M 21.5 -2.15625 "/></g></g></g><g fill="#9fc7aa" fill-opacity="1"><g transform="translate(285.386737, 237.586904)"><g><path d="M 1.078125 -25.34375 L 1.078125 0 L 11.335938 0 L 11.242188 -20.613281 C 11.242188 -22.296875 11.664062 -23.515625 12.882812 -23.328125 C 15.785156 -22.90625 14.195312 -15.132812 20.285156 -15.132812 C 24.265625 -15.132812 26.46875 -17.566406 26 -25.34375 L 24.78125 -25.34375 C 24.78125 -23.609375 24.265625 -22.296875 22.71875 -22.296875 C 20.425781 -22.296875 20.613281 -25.671875 15.132812 -25.671875 C 11.242188 -25.671875 9.976562 -22.4375 6.886719 -21.875 C 4.308594 -21.40625 2.25 -21.734375 2.25 -25.34375 Z M 1.078125 -25.34375 "/></g></g></g><path fill="#ebfced" d="M 158.484375 265.902344 L 216.503906 265.902344 C 218.195312 265.902344 219.566406 267.273438 219.566406 268.964844 L 219.566406 275.085938 C 219.566406 276.777344 218.195312 278.148438 216.503906 278.148438 L 158.484375 278.148438 C 157.671875 278.148438 156.894531 277.828125 156.320312 277.253906 C 155.746094 276.679688 155.421875 275.898438 155.421875 275.085938 L 155.421875 268.964844 C 155.421875 268.152344 155.746094 267.375 156.320312 266.800781 C 156.894531 266.226562 157.671875 265.902344 158.484375 265.902344 Z M 158.484375 265.902344 " fill-opacity="1" fill-rule="nonzero"/><g fill="#9fc7aa" fill-opacity="1"><g transform="translate(159.797475, 274.212349)"><g><path d="M 0.480469 0 L 3.734375 0 C 5.160156 0 5.964844 -0.628906 5.964844 -1.730469 C 5.964844 -2.519531 5.539062 -3.035156 4.777344 -3.183594 L 4.777344 -3.191406 C 5.449219 -3.367188 5.824219 -3.839844 5.824219 -4.53125 C 5.824219 -5.617188 5.046875 -6.226562 3.65625 -6.226562 L 0.480469 -6.226562 Z M 1.976562 -3.648438 L 1.976562 -5.125 L 3.421875 -5.125 C 4.007812 -5.125 4.339844 -4.855469 4.339844 -4.398438 C 4.339844 -3.917969 4.007812 -3.648438 3.421875 -3.648438 Z M 1.976562 -1.109375 L 1.976562 -2.695312 L 3.464844 -2.695312 C 4.113281 -2.695312 4.480469 -2.40625 4.480469 -1.878906 C 4.480469 -1.390625 4.113281 -1.109375 3.464844 -1.109375 Z M 1.976562 -1.109375 "/></g></g></g><g fill="#9fc7aa" fill-opacity="1"><g transform="translate(167.731541, 274.212349)"><g><path d="M 2.230469 0 L 3.726562 0 L 3.726562 -2.195312 L 5.871094 -6.226562 L 4.269531 -6.226562 L 2.992188 -3.507812 L 2.972656 -3.507812 L 1.617188 -6.226562 L 0.0429688 -6.226562 L 2.230469 -2.195312 Z M 2.230469 0 "/></g></g></g><g fill="#9fc7aa" fill-opacity="1"><g transform="translate(175.394439, 274.212349)"><g/></g></g><g fill="#9fc7aa" fill-opacity="1"><g transform="translate(179.077173, 274.212349)"><g><path d="M 0.0429688 0 L 1.609375 0 L 2.011719 -1.226562 L 4.410156 -1.226562 L 4.8125 0 L 6.378906 0 L 4.128906 -6.226562 L 2.300781 -6.226562 Z M 2.28125 -2.28125 L 3.203125 -5.046875 L 3.21875 -5.046875 L 4.136719 -2.28125 Z M 2.28125 -2.28125 "/></g></g></g><g fill="#9fc7aa" fill-opacity="1"><g transform="translate(187.247428, 274.212349)"><g><path d="M 0.480469 0 L 4.566406 0 L 4.566406 -1.285156 L 1.976562 -1.285156 L 1.976562 -6.226562 L 0.480469 -6.226562 Z M 0.480469 0 "/></g></g></g><g fill="#9fc7aa" fill-opacity="1"><g transform="translate(193.694406, 274.212349)"><g><path d="M 0.480469 0 L 4.949219 0 L 4.949219 -1.199219 L 1.925781 -1.199219 L 1.925781 -2.660156 L 4.515625 -2.660156 L 4.515625 -3.71875 L 1.925781 -3.71875 L 1.925781 -5.039062 L 4.863281 -5.039062 L 4.863281 -6.226562 L 0.480469 -6.226562 Z M 0.480469 0 "/></g></g></g><g fill="#9fc7aa" fill-opacity="1"><g transform="translate(200.587509, 274.212349)"><g><path d="M 0.0429688 0 L 1.777344 0 L 3.191406 -2.25 L 4.628906 0 L 6.386719 0 L 4.234375 -3.261719 L 6.34375 -6.226562 L 4.582031 -6.226562 L 3.191406 -4.128906 L 1.828125 -6.226562 L 0.0976562 -6.226562 L 2.152344 -3.261719 Z M 0.0429688 0 "/></g></g></g><g fill="#9fc7aa" fill-opacity="1"><g transform="translate(208.766519, 274.212349)"><g><path d="M 0.0429688 0 L 1.609375 0 L 2.011719 -1.226562 L 4.410156 -1.226562 L 4.8125 0 L 6.378906 0 L 4.128906 -6.226562 L 2.300781 -6.226562 Z M 2.28125 -2.28125 L 3.203125 -5.046875 L 3.21875 -5.046875 L 4.136719 -2.28125 Z M 2.28125 -2.28125 "/></g></g></g></svg>